<?xml version="1.0" standalone="no"?><!DOCTYPE svg PUBLIC "-//W3C//DTD SVG 1.1//EN" "http://www.w3.org/Graphics/SVG/1.1/DTD/svg11.dtd"><svg class="icon" width="200px" height="200.00px" viewBox="0 0 1024 1024" version="1.1" xmlns="http://www.w3.org/2000/svg"><path d="M885.8 715.3c-20.4 45.3-30.2 65.5-56.5 105.5-36.7 55.9-88.4 125.5-152.6 126.1-56.9 0.6-71.6-37.1-148.9-36.6-77.3 0.4-93.4 37.3-150.4 36.8-64.1-0.6-113.1-63.4-149.8-119.3C125 671.5 114.2 488.1 177.5 390.6c45-69.3 116-109.8 182.7-109.8 67.9 0 110.6 37.2 166.8 37.2 54.5 0 87.7-37.3 166.2-37.3 59.4 0 122.4 32.3 167.2 88.2-146.9 80.5-123 290.3 25.4 346.4z m-252.1-497c28.5-36.6 50.2-88.4 42.4-141.3-46.7 3.2-101.2 32.9-133 71.6-29 35.1-52.8 87.1-43.5 137.8 50.9 1.5 103.6-28.9 134.1-68.1z"  /></svg>