<?xml version="1.0" standalone="no"?><!DOCTYPE svg PUBLIC "-//W3C//DTD SVG 1.1//EN" "http://www.w3.org/Graphics/SVG/1.1/DTD/svg11.dtd"><svg class="icon" width="200px" height="200.00px" viewBox="0 0 1024 1024" version="1.1" xmlns="http://www.w3.org/2000/svg"><path d="M512.2 192 512.2 192c-159.8 0-311.4 59.8-427.8 168.2L64 379.2l19.8 19.6 64.6 64 18.6 18.4 19.2-17.6c89-81.8 204.6-127 325.6-127 121 0 236.8 45.2 325.6 127l19.2 17.6 18.6-18.4 64.6-64 19.8-19.6-20.4-19C823.2 251.8 671.4 192 512.2 192z"  /><path d="M794.8 512.8c-77.6-70.2-177.8-108.8-282.2-108.8l-0.2 0-0.6 0-17 0-0.2 0.4c-98.4 4-192 42.2-265.2 108.4l-21 19 20.2 20 65.4 64.8 18.2 18 19.2-16.8c50.6-44.4 114.8-69 180.6-69 66.2 0 130.4 24.6 181 69l19.2 16.8 18.2-18 65.4-64.8 20.2-20L794.8 512.8z"  /><path d="M512.4 832l19.2-19 105.6-104.4 21.2-21-23.2-19c-30.8-22.8-64.8-40-123-40-58 0-89.8 18.8-123 40l-23 19 21.2 21 105.6 104.4L512.4 832z"  /></svg>